<mxfile host="app.diagrams.net" modified="2021-05-24T17:38:52.176Z" agent="5.0 (X11; Linux x86_64) AppleWebKit/537.36 (KHTML, like Gecko) Chrome/86.0.4240.183 Safari/537.36" etag="cTfwTOLxAyGGNQr0z_Y3" version="14.7.0" type="github">
  <diagram id="5dbl9JqN81jx8YHzoZsA" name="Page-1">
    <mxGraphModel dx="801" dy="462" grid="1" gridSize="10" guides="1" tooltips="1" connect="1" arrows="1" fold="1" page="1" pageScale="1" pageWidth="850" pageHeight="1100" math="0" shadow="0">
      <root>
        <mxCell id="0" />
        <mxCell id="1" parent="0" />
        <mxCell id="0RIY6VBiXKntotxIIVKX-4" value="" style="html=1;points=[];perimeter=orthogonalPerimeter;" vertex="1" parent="1">
          <mxGeometry x="160" y="200" width="10" height="270" as="geometry" />
        </mxCell>
        <mxCell id="0RIY6VBiXKntotxIIVKX-5" value="" style="html=1;points=[];perimeter=orthogonalPerimeter;" vertex="1" parent="1">
          <mxGeometry x="400" y="200" width="10" height="270" as="geometry" />
        </mxCell>
        <mxCell id="0RIY6VBiXKntotxIIVKX-6" value="" style="html=1;points=[];perimeter=orthogonalPerimeter;" vertex="1" parent="1">
          <mxGeometry x="610" y="200" width="10" height="270" as="geometry" />
        </mxCell>
        <mxCell id="0RIY6VBiXKntotxIIVKX-7" value=":FrontEnd Client" style="rounded=1;whiteSpace=wrap;html=1;" vertex="1" parent="1">
          <mxGeometry x="110" y="110" width="120" height="60" as="geometry" />
        </mxCell>
        <mxCell id="0RIY6VBiXKntotxIIVKX-8" value=":GoNoGo Core" style="rounded=1;whiteSpace=wrap;html=1;" vertex="1" parent="1">
          <mxGeometry x="340" y="110" width="120" height="60" as="geometry" />
        </mxCell>
        <mxCell id="0RIY6VBiXKntotxIIVKX-9" value=":MongoDB" style="rounded=1;whiteSpace=wrap;html=1;" vertex="1" parent="1">
          <mxGeometry x="555" y="110" width="120" height="60" as="geometry" />
        </mxCell>
        <mxCell id="0RIY6VBiXKntotxIIVKX-12" value="" style="endArrow=none;dashed=1;html=1;" edge="1" parent="1">
          <mxGeometry width="50" height="50" relative="1" as="geometry">
            <mxPoint x="165" y="200" as="sourcePoint" />
            <mxPoint x="164.5" y="170" as="targetPoint" />
            <Array as="points" />
          </mxGeometry>
        </mxCell>
        <mxCell id="0RIY6VBiXKntotxIIVKX-13" value="" style="endArrow=none;dashed=1;html=1;" edge="1" parent="1">
          <mxGeometry width="50" height="50" relative="1" as="geometry">
            <mxPoint x="405" y="200" as="sourcePoint" />
            <mxPoint x="404.5" y="170" as="targetPoint" />
            <Array as="points" />
          </mxGeometry>
        </mxCell>
        <mxCell id="0RIY6VBiXKntotxIIVKX-14" value="" style="endArrow=none;dashed=1;html=1;" edge="1" parent="1">
          <mxGeometry width="50" height="50" relative="1" as="geometry">
            <mxPoint x="615" y="200" as="sourcePoint" />
            <mxPoint x="614.5" y="170" as="targetPoint" />
            <Array as="points" />
          </mxGeometry>
        </mxCell>
        <mxCell id="0RIY6VBiXKntotxIIVKX-15" value="" style="endArrow=classic;html=1;exitX=0.3;exitY=-0.004;exitDx=0;exitDy=0;exitPerimeter=0;" edge="1" parent="1" source="0RIY6VBiXKntotxIIVKX-4">
          <mxGeometry width="50" height="50" relative="1" as="geometry">
            <mxPoint x="330" y="350" as="sourcePoint" />
            <mxPoint x="400" y="199" as="targetPoint" />
          </mxGeometry>
        </mxCell>
        <mxCell id="0RIY6VBiXKntotxIIVKX-16" value="Request" style="text;html=1;align=center;verticalAlign=middle;resizable=0;points=[];autosize=1;strokeColor=none;" vertex="1" parent="1">
          <mxGeometry x="250" y="170" width="60" height="20" as="geometry" />
        </mxCell>
        <mxCell id="0RIY6VBiXKntotxIIVKX-17" value="" style="endArrow=classic;html=1;exitX=-0.1;exitY=0.889;exitDx=0;exitDy=0;exitPerimeter=0;entryX=1.3;entryY=0.893;entryDx=0;entryDy=0;entryPerimeter=0;" edge="1" parent="1" source="0RIY6VBiXKntotxIIVKX-5" target="0RIY6VBiXKntotxIIVKX-4">
          <mxGeometry width="50" height="50" relative="1" as="geometry">
            <mxPoint x="330" y="330" as="sourcePoint" />
            <mxPoint x="180" y="440" as="targetPoint" />
          </mxGeometry>
        </mxCell>
        <mxCell id="0RIY6VBiXKntotxIIVKX-18" value="Response(In Byte)" style="text;html=1;align=center;verticalAlign=middle;resizable=0;points=[];autosize=1;strokeColor=none;" vertex="1" parent="1">
          <mxGeometry x="205" y="420" width="110" height="20" as="geometry" />
        </mxCell>
        <mxCell id="0RIY6VBiXKntotxIIVKX-19" value="" style="endArrow=classic;html=1;" edge="1" parent="1">
          <mxGeometry width="50" height="50" relative="1" as="geometry">
            <mxPoint x="412" y="240" as="sourcePoint" />
            <mxPoint x="610" y="240" as="targetPoint" />
          </mxGeometry>
        </mxCell>
        <mxCell id="0RIY6VBiXKntotxIIVKX-23" value="call to DB" style="text;html=1;align=center;verticalAlign=middle;resizable=0;points=[];autosize=1;strokeColor=none;" vertex="1" parent="1">
          <mxGeometry x="485" y="220" width="70" height="20" as="geometry" />
        </mxCell>
        <mxCell id="0RIY6VBiXKntotxIIVKX-24" value="" style="endArrow=classic;html=1;exitX=-0.4;exitY=0.737;exitDx=0;exitDy=0;exitPerimeter=0;entryX=1.1;entryY=0.737;entryDx=0;entryDy=0;entryPerimeter=0;" edge="1" parent="1" source="0RIY6VBiXKntotxIIVKX-6" target="0RIY6VBiXKntotxIIVKX-5">
          <mxGeometry width="50" height="50" relative="1" as="geometry">
            <mxPoint x="360" y="350" as="sourcePoint" />
            <mxPoint x="410" y="300" as="targetPoint" />
          </mxGeometry>
        </mxCell>
        <mxCell id="0RIY6VBiXKntotxIIVKX-25" value="InputStream" style="text;html=1;align=center;verticalAlign=middle;resizable=0;points=[];autosize=1;strokeColor=none;" vertex="1" parent="1">
          <mxGeometry x="450" y="380" width="80" height="20" as="geometry" />
        </mxCell>
      </root>
    </mxGraphModel>
  </diagram>
</mxfile>
